<svg width="135" height="179" viewBox="0 0 135 179" fill="none" xmlns="http://www.w3.org/2000/svg">
<path d="M39.809 132.33V162H36.799V138.307L26.221 162H24.028L13.45 138.393V162H10.44V132.33H13.622L25.103 158.044L36.584 132.33H39.809ZM64.0523 154.862H50.3783L47.7553 162H44.5733L55.5383 132.33H58.9353L69.8573 162H66.6753L64.0523 154.862ZM63.1493 152.368L57.2153 136.114L51.2813 152.368H63.1493ZM98.51 131.943L87.115 162H83.675L72.28 131.943H75.548L85.395 158.732L95.328 131.943H98.51ZM120.448 154.862H106.774L104.151 162H100.969L111.934 132.33H115.331L126.253 162H123.071L120.448 154.862ZM119.545 152.368L113.611 136.114L107.677 152.368H119.545Z" fill="#CFAE60"/>
<path d="M130.254 65.0215C129.839 64.2891 129.279 63.6493 128.608 63.1415C127.937 62.6336 127.169 62.2684 126.352 62.0684C120.841 60.7319 115.113 60.5524 109.529 61.541C111.902 51.0996 110.373 42.9258 108.791 38.1797C108.315 36.6864 107.302 35.4228 105.948 34.6337C104.594 33.8446 102.995 33.586 101.461 33.9082C96.0207 35.1395 90.8773 37.4334 86.3262 40.6582C83.107 32.9384 77.926 26.194 71.2969 21.0938C70.2015 20.2722 68.8692 19.8281 67.5 19.8281C66.1308 19.8281 64.7985 20.2722 63.7031 21.0938C57.074 26.194 51.893 32.9384 48.6738 40.6582C44.1227 37.4334 38.9793 35.1395 33.5391 33.9082C32.0052 33.586 30.4064 33.8446 29.0522 34.6337C27.698 35.4228 26.6849 36.6864 26.209 38.1797C24.627 42.9258 23.0977 51.0996 25.4707 61.541C19.8871 60.5524 14.1592 60.7319 8.64844 62.0684C7.83096 62.2684 7.06306 62.6336 6.39196 63.1415C5.72086 63.6493 5.16075 64.2891 4.74609 65.0215C3.90993 66.4941 3.68282 68.2353 4.11328 69.873C5.90625 76.2012 11.3906 88.3301 28.002 97.9277C44.6133 107.525 59.5371 107.578 67.5 107.578C75.4629 107.578 90.2812 107.578 106.998 97.9277C123.715 88.2773 129.094 76.2012 130.887 69.873C131.317 68.2353 131.09 66.4941 130.254 65.0215ZM102.357 38.0742C102.86 37.9566 103.389 38.0324 103.838 38.2864C104.287 38.5404 104.625 38.9541 104.783 39.4453C106.312 44.1914 107.842 52.6289 104.625 63.4922C104.572 63.5977 104.572 63.7031 104.52 63.8086C103.255 67.9818 101.484 71.9843 99.2461 75.7266C94.7342 83.4595 88.7289 90.2176 81.5801 95.6074L80.2617 96.5566C85.5879 89.543 90.7031 78.7852 90.7031 63.2812C90.7564 56.981 89.7948 50.7133 87.8555 44.7188C92.1611 41.4964 97.1054 39.231 102.357 38.0742ZM66.2344 24.4688C66.5995 24.1949 67.0436 24.0469 67.5 24.0469C67.9564 24.0469 68.4005 24.1949 68.7656 24.4688C74.0918 28.4766 86.4844 40.1836 86.4844 63.2812C86.4844 75.4629 83.1094 85.9043 76.5176 94.3945C73.9847 97.7181 70.9411 100.619 67.5 102.99C64.0589 100.619 61.0153 97.7181 58.4824 94.3945C51.8906 85.9043 48.5156 75.4629 48.5156 63.2812C48.5156 40.1836 60.9082 28.4766 66.2344 24.4688ZM30.2168 39.4453C30.3753 38.9541 30.7127 38.5404 31.1621 38.2864C31.6115 38.0324 32.14 37.9566 32.6426 38.0742C37.8946 39.231 42.8389 41.4964 47.1445 44.7188C45.2052 50.7133 44.2436 56.981 44.2969 63.2812C44.2969 78.7852 49.4121 89.543 54.7383 96.5566L53.4199 95.6074C46.2711 90.2176 40.2658 83.4595 35.7539 75.7266C33.5147 71.9662 31.7438 67.9461 30.4805 63.7559L30.375 63.4922C27.1582 52.6289 28.6875 44.1914 30.2168 39.4453ZM8.17383 68.7129C8.1018 68.4484 8.08335 68.1723 8.11958 67.9006C8.1558 67.6289 8.24596 67.3672 8.38477 67.1309C8.6766 66.6592 9.12439 66.3047 9.65039 66.1289C15.2696 64.8299 21.1092 64.8119 26.7363 66.0762C28.1041 70.1682 29.8889 74.1089 32.0625 77.8359C38.8652 89.6484 48.7793 98.0859 56.7949 102.938C47.3802 102.016 38.2769 99.065 30.1113 94.2891C14.7656 85.4297 9.80859 74.4609 8.17383 68.7129ZM126.826 68.7129C125.191 74.4609 120.234 85.4297 104.889 94.2891C96.7231 99.065 87.6198 102.016 78.2051 102.938C86.2207 98.0859 96.1348 89.6484 102.938 77.8359C105.111 74.1089 106.896 70.1682 108.264 66.0762C113.891 64.8119 119.73 64.8299 125.35 66.1289C125.876 66.3047 126.323 66.6592 126.615 67.1309C126.754 67.3672 126.844 67.6289 126.88 67.9006C126.917 68.1723 126.898 68.4484 126.826 68.7129Z" fill="#CFAE60"/>
</svg>
